<?xml version="1.0" encoding="utf-8"?>
<!-- Generator: Adobe Illustrator 24.0.1, SVG Export Plug-In . SVG Version: 6.00 Build 0)  -->
<svg version="1.1" id="レイヤー_1" xmlns="http://www.w3.org/2000/svg" xmlns:xlink="http://www.w3.org/1999/xlink" x="0px"
	 y="0px" viewBox="0 0 108 112.9" style="enable-background:new 0 0 108 112.9;" xml:space="preserve">
<style type="text/css">
	.st0{fill:url(#SVGID_1_);}
	.st1{fill:#FFFFFF;}
	.st2{fill:#7D776A;}
	.st3{fill:none;stroke:#7D776A;stroke-width:3;stroke-linecap:round;stroke-miterlimit:10;}
</style>
<title>BoxCat</title>
<g id="レイヤー_2_1_">
	<g id="レイヤー_1-2">
		<linearGradient id="SVGID_1_" gradientUnits="userSpaceOnUse" x1="54" y1="112.92" x2="54" y2="-2.965886e-03">
			<stop  offset="7.210913e-03" style="stop-color:#FFE561"/>
			<stop  offset="0.2838" style="stop-color:#FFDC3C"/>
			<stop  offset="0.5827" style="stop-color:#FFD31B"/>
			<stop  offset="0.8322" style="stop-color:#FFCE07"/>
			<stop  offset="1" style="stop-color:#FFCC00"/>
		</linearGradient>
		<path class="st0" d="M92.8,12.9h-3.3c-1.5,0-2.9-0.8-3.6-2.1l-5.3-9.2c-0.9-1.5-2.9-2.1-4.4-1.2c-0.5,0.3-0.9,0.7-1.2,1.2
			l-5.3,9.2c-0.8,1.3-2.1,2.1-3.7,2.1H42.6c-1.5,0-2.9-0.8-3.6-2.1l-5.3-9.2c-0.9-1.5-2.9-2.1-4.4-1.2c-0.5,0.3-0.9,0.7-1.2,1.2
			l-5.3,9.2c-0.7,1.3-2.1,2.1-3.6,2.1h-3.9C9,12.9,4,18,4,24.2v77.5c0,6.2,5,11.2,11.2,11.2h77.5c6.2,0,11.2-5,11.2-11.2V24.2
			C104,18,99,12.9,92.8,12.9z"/>
		<path class="st1" d="M54.5,68.9c-20.9,0-39.4,6-50.5,15v17.7c0,6.2,5,11.2,11.2,11.2h77.5c6.2,0,11.2-5,11.2-11.2V83.2
			C92.8,74.5,74.8,68.9,54.5,68.9z"/>
		<ellipse class="st2" cx="27.2" cy="65.9" rx="4.8" ry="7.6"/>
		<ellipse class="st2" cx="80.8" cy="65.9" rx="4.8" ry="7.6"/>
		<path class="st3" d="M73.2,82.9c0,6.2-4.3,11.2-9.6,11.2S54,85.9,54,79.7c0,6.2-4.3,14.4-9.6,14.4s-9.6-5-9.6-11.2"/>
		<path class="st2" d="M77.8,3c0.1,0,0.2,0,0.2,0.1l5.3,9.2c1.3,2.2,3.7,3.6,6.2,3.6h3.3c4.6,0,8.2,3.7,8.2,8.3v77.5
			c0,4.6-3.7,8.2-8.2,8.2H15.2c-4.6,0-8.2-3.7-8.2-8.2V24.2c0-4.6,3.7-8.3,8.2-8.3h3.9c2.6,0,4.9-1.4,6.2-3.6l5.3-9.2
			C30.8,3,30.9,3,31,3c0,0,0.1,0,0.1,0.1l5.3,9.2c1.3,2.2,3.6,3.6,6.2,3.6H66c2.6,0,4.9-1.4,6.2-3.6l5.3-9.2C77.6,3,77.7,3,77.8,3
			 M77.8,0c-1.1,0-2.2,0.6-2.8,1.6l-5.3,9.2c-0.8,1.3-2.2,2.1-3.7,2.1H42.6c-1.5,0-2.9-0.8-3.6-2.1l-5.3-9.2
			c-0.9-1.5-2.9-2.1-4.4-1.2c-0.5,0.3-0.9,0.7-1.2,1.2l-5.3,9.2c-0.7,1.3-2.1,2.1-3.6,2.1h-3.9C9,12.9,4,18,4,24.2v77.5
			c0,6.2,5,11.2,11.2,11.2h77.5c6.2,0,11.2-5,11.2-11.2V24.2c0-6.2-5-11.3-11.2-11.3h-3.3c-1.5,0-2.9-0.8-3.6-2.1l-5.3-9.2
			C80,0.6,78.9,0,77.8,0z"/>
		<g>
			<line class="st3" x1="4.2" y1="61.4" x2="16.5" y2="68.4"/>
			<line class="st3" x1="3.8" y1="84.4" x2="16.5" y2="77.4"/>
			<line class="st3" x1="16.5" y1="73.4" x2="1.5" y2="73.4"/>
		</g>
		<g>
			<line class="st3" x1="91.6" y1="68.4" x2="103.9" y2="61.4"/>
			<line class="st3" x1="91.6" y1="77.4" x2="104.2" y2="84.4"/>
			<line class="st3" x1="106.6" y1="73.4" x2="91.6" y2="73.4"/>
		</g>
	</g>
</g>
</svg>
